<svg width="206" height="80" viewBox="0 0 206 80" fill="none" xmlns="http://www.w3.org/2000/svg">
<g clip-path="url(#clip0_10230_208564)">
<path d="M76.7012 30.2119C70.9232 30.2119 66.2218 34.7943 66.2218 40.4276C66.2218 46.0609 70.9232 50.7393 76.7012 50.7393C82.4791 50.7393 87.1485 46.1133 87.1485 40.4276C87.1485 34.7418 82.4612 30.2119 76.7012 30.2119ZM82.3396 40.4263C82.3396 43.7927 79.8628 46.4295 76.7012 46.4295C73.5396 46.4295 71.0308 43.7927 71.0308 40.4263C71.0308 37.0599 73.5216 34.5204 76.7012 34.5204C79.8807 34.5204 82.3396 37.1149 82.3396 40.4263ZM134.693 30.2119C128.915 30.2119 124.213 34.7943 124.213 40.4276C124.213 46.0609 128.915 50.7393 134.693 50.7393C140.471 50.7393 145.14 46.1133 145.14 40.4276C145.14 34.7418 140.453 30.2119 134.693 30.2119ZM140.333 40.4263C140.333 43.7927 137.856 46.4295 134.694 46.4295C131.533 46.4295 129.024 43.7927 129.024 40.4263C129.024 37.0599 131.515 34.5204 134.694 34.5204C137.874 34.5204 140.333 37.1149 140.333 40.4263ZM194.505 30.2119C188.727 30.2119 184.025 34.7943 184.025 40.4276C184.025 46.0609 188.727 50.7393 194.505 50.7393C200.283 50.7393 204.952 46.1133 204.952 40.4276C204.952 34.7418 200.265 30.2119 194.505 30.2119ZM200.144 40.4263C200.144 43.7927 197.668 46.4295 194.506 46.4295C191.344 46.4295 188.836 43.7927 188.836 40.4263C188.836 37.0599 191.326 34.5204 194.506 34.5204C197.685 34.5204 200.144 37.1149 200.144 40.4263ZM64.714 45.1533C64.8266 45.2225 64.8932 45.3441 64.8932 45.4759V49.2007C64.8932 49.3773 64.7908 49.5361 64.6308 49.6077C64.3415 49.737 63.786 49.9777 63.3124 50.1223C61.9927 50.5306 60.5168 50.738 58.9245 50.738C53.0826 50.738 48.6768 46.2042 48.6768 40.4583C48.6768 34.7124 53.2797 30.2106 59.1562 30.2106C61.3476 30.2106 63.0359 30.5805 64.6346 31.4087C64.7933 31.4919 64.8868 31.6609 64.8727 31.8413L64.5834 35.4893C64.5732 35.6212 64.4964 35.7364 64.3786 35.7965C64.2608 35.8567 64.1252 35.8529 64.0125 35.7863C62.6007 34.9466 61.0762 34.5204 59.4852 34.5204C56.0074 34.5204 53.482 36.9421 53.482 40.457C53.482 43.9719 55.9639 46.4282 59.5184 46.4282C60.9252 46.4282 62.122 46.1607 63.521 45.5322C63.6964 45.4541 64.065 45.2724 64.3428 45.1354C64.4618 45.0778 64.5988 45.0842 64.7114 45.1533H64.714ZM174.462 45.1533C174.575 45.2225 174.642 45.3441 174.642 45.4759V49.2007C174.642 49.3773 174.539 49.5361 174.379 49.6077C174.09 49.737 173.534 49.9777 173.061 50.1223C171.741 50.5306 170.265 50.738 168.673 50.738C162.831 50.738 158.425 46.2042 158.425 40.4583C158.425 34.7124 163.028 30.2106 168.905 30.2106C171.096 30.2106 172.784 30.5805 174.383 31.4087C174.542 31.4919 174.635 31.6609 174.621 31.8413L174.332 35.4893C174.322 35.6212 174.245 35.7364 174.127 35.7965C174.011 35.8567 173.874 35.8529 173.761 35.7863C172.349 34.9466 170.825 34.5204 169.234 34.5204C165.756 34.5204 163.23 36.9421 163.23 40.457C163.23 43.9719 165.712 46.4282 169.267 46.4282C170.674 46.4282 171.87 46.1607 173.269 45.5322C173.445 45.4541 173.813 45.2737 174.091 45.1354C174.21 45.0778 174.347 45.0842 174.46 45.1533H174.462ZM99.6874 30.2145C104.38 30.2145 107.181 33.5117 107.181 39.0362V49.9329C107.181 50.1057 107.041 50.2452 106.868 50.2452H102.788C102.615 50.2452 102.475 50.1057 102.475 49.9329V39.4996C102.475 36.3841 100.975 34.5229 98.4599 34.5229C95.7181 34.5229 94.081 36.4199 94.081 39.5969V49.9303C94.081 50.1031 93.9415 50.2426 93.7687 50.2426H89.6855C89.5127 50.2426 89.3732 50.1031 89.3732 49.9303V31.0221C89.3732 30.8493 89.5127 30.7098 89.6855 30.7098H93.601C93.7738 30.7098 93.9133 30.8493 93.9133 31.0221V32.6081C95.3162 31.0605 97.3578 30.2106 99.6861 30.2106V30.2132L99.6874 30.2145ZM121.335 40.9703C122.392 42.0711 122.905 43.3037 122.905 44.7373C122.905 46.5537 122.137 48.082 120.685 49.1546C119.282 50.1914 117.321 50.738 115.014 50.738C113.323 50.738 110.434 49.9687 109.871 49.8151C109.737 49.778 109.642 49.6538 109.642 49.5143V46.0109C109.642 45.9111 109.687 45.8189 109.767 45.7601C109.847 45.7012 109.947 45.6833 110.041 45.7114C110.803 45.9341 113.39 46.6625 114.715 46.6625C117.743 46.6625 118.132 45.6871 118.132 44.8385C118.132 43.7082 116.701 42.9697 115.044 42.1133C112.696 40.9012 109.774 39.3805 109.774 35.9834C109.774 32.5863 112.774 30.2132 117.07 30.2132C119.092 30.2132 120.65 30.5025 121.971 31.1207C122.089 31.1745 122.16 31.2986 122.15 31.4279L121.888 34.7469C121.879 34.8468 121.826 34.9338 121.742 34.9863C121.657 35.0388 121.554 35.049 121.46 35.0119C120.29 34.5447 118.849 34.2887 117.401 34.2887C115.54 34.2887 114.515 34.8749 114.515 35.8145C114.515 36.754 115.874 37.4849 117.45 38.3309C118.758 39.0349 120.239 39.8311 121.335 40.9703ZM177.712 30.7085H181.793C181.966 30.7085 182.105 30.8481 182.105 31.0209V49.929C182.105 50.1018 181.966 50.2413 181.793 50.2413H177.712C177.54 50.2413 177.4 50.1018 177.4 49.929V31.0209C177.4 30.8481 177.54 30.7085 177.712 30.7085ZM157.913 30.345C158.003 30.345 158.086 30.3809 158.145 30.4449C158.205 30.5089 158.236 30.5959 158.229 30.6829L157.924 34.6663C157.917 34.7508 157.876 34.8301 157.81 34.8839C157.743 34.9377 157.66 34.962 157.575 34.9517C157.212 34.9095 156.874 34.8865 156.569 34.8865C154.469 34.8865 152.224 36.0986 152.224 39.497V49.9303C152.224 50.1031 152.084 50.2426 151.911 50.2426H147.831C147.658 50.2426 147.518 50.1031 147.518 49.9303V31.0221C147.518 30.8493 147.658 30.7098 147.831 30.7098H151.746C151.919 30.7098 152.059 30.8493 152.059 31.0221V32.6913C153.453 31.1873 155.471 30.377 157.913 30.3463V30.345ZM35.7744 20.5121C36.0983 20.4941 36.362 20.7693 36.3364 21.0932L33.3104 58.9927C33.281 59.3613 32.8983 59.5917 32.5604 59.4445C30.8336 58.6881 29.0864 58.0097 27.4109 57.5322C27.1626 57.4618 26.9988 57.2289 27.0192 56.9716L29.3143 28.4519C29.3412 28.1242 29.0711 27.8477 28.7434 27.8708C22.6928 28.3009 17.3002 30.1223 12.8087 32.8692C12.6397 32.9729 12.4234 32.8692 12.4004 32.6721L12.2506 31.3831C12.2186 31.113 12.3095 30.8417 12.5015 30.6509C17.6663 25.4631 26.177 21.0535 35.7732 20.5133L35.7744 20.5121ZM7.58884 40.3085C7.55428 40.018 7.66308 39.7287 7.88196 39.5354C12.1764 35.7415 18.2026 32.6183 24.5757 31.4241C24.9264 31.3588 25.2452 31.6404 25.2157 31.9962L24.8906 36.0346C24.8765 36.2087 24.7396 36.3457 24.5668 36.3623C18.0221 36.9946 12.5066 39.1514 8.17892 42.002C8.00996 42.1121 7.78596 42.0084 7.76292 41.8087L7.58884 40.3098V40.3085ZM24.5373 40.4199L24.1316 45.4593C24.1162 45.6487 23.9562 45.7921 23.7655 45.7869C17.1466 45.6372 10.0682 47.538 4.6858 50.7009C4.51812 50.7994 4.30436 50.6945 4.2826 50.5012L4.07652 48.7322C4.04068 48.4327 4.15844 48.1319 4.3914 47.9399C9.5242 43.7146 17.2247 40.2829 23.9613 39.8375C24.2903 39.8157 24.5642 40.0897 24.5373 40.4186V40.4199ZM23.745 50.2017L23.2624 56.2049C23.2458 56.4097 23.0628 56.5556 22.8605 56.53C15.6836 55.6391 7.8154 56.7412 1.29636 59.8029C1.12996 59.881 0.935395 59.7748 0.913635 59.5905L0.678116 57.5629C0.639716 57.2391 0.780515 56.9191 1.04548 56.7297C6.9898 52.498 14.1693 49.5527 23.2151 49.6193C23.5261 49.6218 23.7693 49.8906 23.745 50.2004V50.2017Z" fill="#003058"/>
</g>
<defs>
<clipPath id="clip0_10230_208564">
<rect width="206" height="80" fill="white"/>
</clipPath>
</defs>
</svg>
